<?xml version="1.0" standalone="no"?>
<!DOCTYPE svg PUBLIC "-//W3C//DTD SVG 20010904//EN"
 "http://www.w3.org/TR/2001/REC-SVG-20010904/DTD/svg10.dtd">
<svg version="1.0" xmlns="http://www.w3.org/2000/svg"
 width="2000.000000pt" height="2000.000000pt" viewBox="0 0 2000.000000 2000.000000"
 preserveAspectRatio="xMidYMid meet">
<metadata>
Created by potrace 1.14, written by Peter Selinger 2001-2017
</metadata>
<g transform="translate(0.000000,2000.000000) scale(0.100000,-0.100000)"
fill="#000000" stroke="none">
<path d="M2426 17223 c-1 -1 -58 -3 -126 -4 -260 -3 -461 -91 -657 -287 -110
-111 -206 -292 -237 -447 -15 -73 -16 -649 -14 -6520 l3 -6440 22 -70 c86
-267 270 -477 520 -596 159 -76 170 -77 768 -78 1739 -4 15098 -1 15117 4 13
2 34 7 48 9 53 9 121 29 126 37 3 5 13 9 22 9 17 0 33 8 105 49 87 49 99 58
189 141 145 134 245 305 283 485 13 61 15 867 14 6495 l0 6425 -23 88 c-85
320 -356 592 -671 672 -78 20 -116 23 -295 24 -375 3 -15192 6 -15194 4z"/>
</g>
</svg>
